<svg width="14" height="11" viewBox="0 0 14 11" fill="none" xmlns="http://www.w3.org/2000/svg">
<path d="M12.9621 1.39753L11.8001 0.238525C11.6461 0.0857372 11.438 0 11.2211 0C11.0042 0 10.7961 0.0857372 10.6421 0.238525L5.05512 5.83852L2.55512 3.32253C2.47999 3.2454 2.38985 3.1845 2.29027 3.14356C2.19068 3.10263 2.08377 3.08254 1.97612 3.08453C1.86897 3.08295 1.76263 3.10324 1.66359 3.14416C1.56455 3.18508 1.4749 3.24577 1.40012 3.32253L0.238117 4.47953C0.0855706 4.63362 0 4.84169 0 5.05853C0 5.27536 0.0855706 5.48343 0.238117 5.63752L3.32112 8.72253L4.47912 9.88052C4.63309 10.0333 4.84121 10.119 5.05812 10.119C5.27503 10.119 5.48315 10.0333 5.63712 9.88052L6.80012 8.72253L12.9661 2.55653C13.1187 2.40243 13.2042 2.19436 13.2042 1.97752C13.2042 1.76069 13.1187 1.55262 12.9661 1.39853L12.9621 1.39753Z" fill="white"/>
</svg>
